<?xml version="1.0" encoding="UTF-8" standalone="no"?>
<!-- Created with Inkscape (http://www.inkscape.org/) -->

<svg
   xmlns:dc="http://purl.org/dc/elements/1.1/"
   xmlns:cc="http://creativecommons.org/ns#"
   xmlns:rdf="http://www.w3.org/1999/02/22-rdf-syntax-ns#"
   xmlns:svg="http://www.w3.org/2000/svg"
   xmlns="http://www.w3.org/2000/svg"
   xmlns:sodipodi="http://sodipodi.sourceforge.net/DTD/sodipodi-0.dtd"
   xmlns:inkscape="http://www.inkscape.org/namespaces/inkscape"
   width="600"
   height="40"
   id="svg2"
   version="1.1"
   inkscape:version="0.48.4 r9939"
   sodipodi:docname="land_sea_decoupling1D.svg">
  <defs
     id="defs4" />
  <sodipodi:namedview
     id="base"
     pagecolor="#ffffff"
     bordercolor="#666666"
     borderopacity="1.0"
     inkscape:pageopacity="0.0"
     inkscape:pageshadow="2"
     inkscape:zoom="1.4"
     inkscape:cx="262.75444"
     inkscape:cy="209.99612"
     inkscape:document-units="px"
     inkscape:current-layer="layer1"
     showgrid="false"
     inkscape:window-width="1920"
     inkscape:window-height="1008"
     inkscape:window-x="0"
     inkscape:window-y="33"
     inkscape:window-maximized="1"
     units="px" />
  <metadata
     id="metadata7">
    <rdf:RDF>
      <cc:Work
         rdf:about="">
        <dc:format>image/svg+xml</dc:format>
        <dc:type
           rdf:resource="http://purl.org/dc/dcmitype/StillImage" />
        <dc:title></dc:title>
      </cc:Work>
    </rdf:RDF>
  </metadata>
  <g
     inkscape:label="Layer 1"
     inkscape:groupmode="layer"
     id="layer1"
     transform="translate(0,-1012.3621)">
    <path
       d="m 0,852.36214 0,399.99996 m 40,-399.99996 0,399.99996 m 40,-399.99996 0,399.99996 m 40,-399.99996 0,399.99996 m 40,-399.99996 0,399.99996 m 40,-399.99996 0,399.99996 m 40,-399.99996 0,399.99996 m 40,-399.99996 0,399.99996 m 40,-399.99996 0,399.99996 m 40,-399.99996 0,399.99996 m 40,-399.99996 0,399.99996 m 40,-399.99996 0,399.99996 m 40,-399.99996 0,399.99996 m 40,-399.99996 0,399.99996 m 40,-399.99996 0,399.99996 m 40,-399.99996 0,399.99996 M 0,852.36214 l 600,0 m -600,40 600,0 m -600,40 600,0 m -600,40 600,0 m -600,39.99996 600,0 m -600,40 600,0 m -600,40 600,0 m -600,40 600,0 m -600,40 600,0 m -600,40 600,0 m -600,40 600,0"
       style="fill:none;stroke:#000000;stroke-width:1pt;stroke-linecap:butt;stroke-linejoin:miter;stroke-opacity:1"
       id="path3821"
       inkscape:connector-curvature="0" />
    <path
       style="fill:#008000;fill-opacity:1;stroke:none"
       d="m 330.15615,1051.1719 c 5.41694,-0.1816 14.28103,-0.1816 19.69798,0 5.41694,0.1817 0.98489,0.3303 -9.84899,0.3303 -10.83389,0 -15.26593,-0.1486 -9.84899,-0.3303 z"
       id="path3831"
       inkscape:connector-curvature="0" />
    <path
       style="fill:#008000;fill-opacity:1;stroke:none"
       d="m 320.81224,1032.227 0,-18.6878 19.1929,0 19.1929,0 0,18.6878 0,18.6879 -19.1929,0 -19.1929,0 0,-18.6879 z"
       id="path3833"
       inkscape:connector-curvature="0" />
    <path
       style="fill:#008000;fill-opacity:1;stroke:none"
       d="m 361.21834,1032.227 0,-18.6878 18.68782,0 18.68783,0 0,18.6878 0,18.6879 -18.68783,0 -18.68782,0 0,-18.6879 z"
       id="path3841"
       inkscape:connector-curvature="0" />
    <path
       style="fill:#000080;fill-opacity:1;stroke:none"
       d="m 40.999985,1032.227 0,-18.6878 19.192898,0 19.192898,0 0,18.6878 0,18.6879 -19.192898,0 -19.192898,0 0,-18.6879 z"
       id="path3865"
       inkscape:connector-curvature="0" />
    <path
       style="fill:#000080;fill-opacity:1;stroke:none"
       d="m 241.01019,1032.227 0,-18.6878 18.68782,0 18.68782,0 0,18.6878 0,18.6879 -18.68782,0 -18.68782,0 0,-18.6879 z"
       id="path3889"
       inkscape:connector-curvature="0" />
    <path
       style="fill:#ff0000;fill-opacity:1;stroke:none"
       d="m 441.02039,1032.227 0,-18.6878 18.68782,0 18.68783,0 0,18.6878 0,18.6879 -18.68783,0 -18.68782,0 0,-18.6879 z"
       id="path3897"
       inkscape:connector-curvature="0" />
    <text
       xml:space="preserve"
       style="font-size:15px;font-style:normal;font-weight:normal;line-height:125%;letter-spacing:0px;word-spacing:0px;fill:#000000;fill-opacity:1;stroke:none;font-family:Sans;-inkscape-font-specification:Sans"
       x="94.736046"
       y="1036.119"
       id="text3899-4"
       sodipodi:linespacing="125%"><tspan
         sodipodi:role="line"
         id="tspan3901-5"
         x="94.736046"
         y="1036.119">1</tspan></text>
    <text
       xml:space="preserve"
       style="font-size:15px;font-style:normal;font-weight:normal;line-height:125%;letter-spacing:0px;word-spacing:0px;fill:#000000;fill-opacity:1;stroke:none;font-family:Sans;-inkscape-font-specification:Sans"
       x="14.736046"
       y="1036.119"
       id="text3899-4-5"
       sodipodi:linespacing="125%"><tspan
         sodipodi:role="line"
         id="tspan3901-5-0"
         x="14.736046"
         y="1036.119">1</tspan></text>
    <text
       xml:space="preserve"
       style="font-size:15px;font-style:normal;font-weight:normal;line-height:125%;letter-spacing:0px;word-spacing:0px;fill:#ffffff;fill-opacity:1;stroke:none;font-family:Sans;-inkscape-font-specification:Sans"
       x="52.736046"
       y="1036.119"
       id="text3899-4-5-6-6"
       sodipodi:linespacing="125%"><tspan
         sodipodi:role="line"
         id="tspan3901-5-0-0-8"
         x="52.736046"
         y="1036.119">-2</tspan></text>
    <text
       xml:space="preserve"
       style="font-size:15px;font-style:normal;font-weight:normal;line-height:125%;letter-spacing:0px;word-spacing:0px;fill:#000000;fill-opacity:1;stroke:none;font-family:Sans;-inkscape-font-specification:Sans"
       x="293.54825"
       y="1037.769"
       id="text3899-4-1"
       sodipodi:linespacing="125%"><tspan
         sodipodi:role="line"
         id="tspan3901-5-1"
         x="293.54825"
         y="1037.769">1</tspan></text>
    <text
       xml:space="preserve"
       style="font-size:15px;font-style:normal;font-weight:normal;line-height:125%;letter-spacing:0px;word-spacing:0px;fill:#000000;fill-opacity:1;stroke:none;font-family:Sans;-inkscape-font-specification:Sans"
       x="213.54825"
       y="1037.769"
       id="text3899-4-5-3"
       sodipodi:linespacing="125%"><tspan
         sodipodi:role="line"
         id="tspan3901-5-0-8"
         x="213.54825"
         y="1037.769">1</tspan></text>
    <text
       xml:space="preserve"
       style="font-size:15px;font-style:normal;font-weight:normal;line-height:125%;letter-spacing:0px;word-spacing:0px;fill:#ffffff;fill-opacity:1;stroke:none;font-family:Sans;-inkscape-font-specification:Sans"
       x="251.54825"
       y="1037.769"
       id="text3899-4-5-6-6-5"
       sodipodi:linespacing="125%"><tspan
         sodipodi:role="line"
         id="tspan3901-5-0-0-8-2"
         x="251.54825"
         y="1037.769">-2</tspan></text>
    <text
       xml:space="preserve"
       style="font-size:15px;font-style:normal;font-weight:normal;line-height:125%;letter-spacing:0px;word-spacing:0px;fill:#000000;fill-opacity:1;stroke:none;font-family:Sans;-inkscape-font-specification:Sans"
       x="494.70062"
       y="1035.8248"
       id="text3899-4-9"
       sodipodi:linespacing="125%"><tspan
         sodipodi:role="line"
         id="tspan3901-5-7"
         x="494.70062"
         y="1035.8248">1</tspan></text>
    <text
       xml:space="preserve"
       style="font-size:15px;font-style:normal;font-weight:normal;line-height:125%;letter-spacing:0px;word-spacing:0px;fill:#000000;fill-opacity:1;stroke:none;font-family:Sans;-inkscape-font-specification:Sans"
       x="414.70065"
       y="1035.8248"
       id="text3899-4-5-5"
       sodipodi:linespacing="125%"><tspan
         sodipodi:role="line"
         id="tspan3901-5-0-5"
         x="414.70065"
         y="1035.8248">1</tspan></text>
    <text
       xml:space="preserve"
       style="font-size:15px;font-style:normal;font-weight:normal;line-height:125%;letter-spacing:0px;word-spacing:0px;fill:#ffffff;fill-opacity:1;stroke:none;font-family:Sans;-inkscape-font-specification:Sans"
       x="452.70062"
       y="1035.8248"
       id="text3899-4-5-6-6-4"
       sodipodi:linespacing="125%"><tspan
         sodipodi:role="line"
         id="tspan3901-5-0-0-8-0"
         x="452.70062"
         y="1035.8248">-2</tspan></text>
  </g>
</svg>
