<?xml version="1.0" encoding="UTF-8" standalone="no"?>
<!-- Created with Inkscape (http://www.inkscape.org/) -->

<svg
   xmlns:dc="http://purl.org/dc/elements/1.1/"
   xmlns:cc="http://creativecommons.org/ns#"
   xmlns:rdf="http://www.w3.org/1999/02/22-rdf-syntax-ns#"
   xmlns:svg="http://www.w3.org/2000/svg"
   xmlns="http://www.w3.org/2000/svg"
   xmlns:sodipodi="http://sodipodi.sourceforge.net/DTD/sodipodi-0.dtd"
   xmlns:inkscape="http://www.inkscape.org/namespaces/inkscape"
   width="600"
   height="400"
   id="svg2"
   version="1.1"
   inkscape:version="0.48.4 r9939"
   sodipodi:docname="land_sea_decoupling.svg">
  <defs
     id="defs4" />
  <sodipodi:namedview
     id="base"
     pagecolor="#ffffff"
     bordercolor="#666666"
     borderopacity="1.0"
     inkscape:pageopacity="0.0"
     inkscape:pageshadow="2"
     inkscape:zoom="0.98994949"
     inkscape:cx="169.08733"
     inkscape:cy="324.28183"
     inkscape:document-units="px"
     inkscape:current-layer="layer1"
     showgrid="false"
     inkscape:window-width="1920"
     inkscape:window-height="1008"
     inkscape:window-x="0"
     inkscape:window-y="33"
     inkscape:window-maximized="1"
     units="px" />
  <metadata
     id="metadata7">
    <rdf:RDF>
      <cc:Work
         rdf:about="">
        <dc:format>image/svg+xml</dc:format>
        <dc:type
           rdf:resource="http://purl.org/dc/dcmitype/StillImage" />
        <dc:title></dc:title>
      </cc:Work>
    </rdf:RDF>
  </metadata>
  <g
     inkscape:label="Layer 1"
     inkscape:groupmode="layer"
     id="layer1"
     transform="translate(0,-652.36214)">
    <path
       d="m 0,652.36214 0,399.99996 m 40,-399.99996 0,399.99996 m 40,-399.99996 0,399.99996 m 40,-399.99996 0,399.99996 m 40,-399.99996 0,399.99996 m 40,-399.99996 0,399.99996 m 40,-399.99996 0,399.99996 m 40,-399.99996 0,399.99996 m 40,-399.99996 0,399.99996 m 40,-399.99996 0,399.99996 m 40,-399.99996 0,399.99996 m 40,-399.99996 0,399.99996 m 40,-399.99996 0,399.99996 m 40,-399.99996 0,399.99996 m 40,-399.99996 0,399.99996 m 40,-399.99996 0,399.99996 M 0,652.36214 l 600,0 m -600,40 600,0 m -600,40 600,0 m -600,40 600,0 m -600,40 600,0 m -600,40 600,0 m -600,40 600,0 m -600,40 600,0 m -600,40 600,0 m -600,39.99996 600,0 m -600,40 600,0"
       style="fill:none;stroke:#000000;stroke-width:1pt;stroke-linecap:butt;stroke-linejoin:miter;stroke-opacity:1"
       id="path3821"
       inkscape:connector-curvature="0" />
    <path
       style="fill:#008000;fill-opacity:1;stroke:none"
       d="m 320.81224,139.96387 0,-19.1929 19.1929,0 19.1929,0 0,19.1929 0,19.1929 -19.1929,0 -19.1929,0 0,-19.1929 z"
       id="path3829"
       inkscape:connector-curvature="0"
       transform="translate(0,652.36214)" />
    <path
       style="fill:#008000;fill-opacity:1;stroke:none"
       d="m 330.15615,198.8098 c 5.41694,-0.18163 14.28103,-0.18163 19.69798,0 5.41694,0.18163 0.98489,0.33024 -9.84899,0.33024 -10.83389,0 -15.26593,-0.14861 -9.84899,-0.33024 z"
       id="path3831"
       inkscape:connector-curvature="0"
       transform="translate(0,652.36214)" />
    <path
       style="fill:#008000;fill-opacity:1;stroke:none"
       d="m 320.81224,179.86489 0,-18.68782 19.1929,0 19.1929,0 0,18.68782 0,18.68783 -19.1929,0 -19.1929,0 0,-18.68783 z"
       id="path3833"
       inkscape:connector-curvature="0"
       transform="translate(0,652.36214)" />
    <path
       style="fill:#008000;fill-opacity:1;stroke:none"
       d="m 320.81224,220.271 0,-18.68783 19.1929,0 19.1929,0 0,18.68783 0,18.68782 -19.1929,0 -19.1929,0 0,-18.68782 z"
       id="path3835"
       inkscape:connector-curvature="0"
       transform="translate(0,652.36214)" />
    <path
       style="fill:#008000;fill-opacity:1;stroke:none"
       d="m 320.81224,100.06284 0,-18.687819 19.1929,0 19.1929,0 0,18.687819 0,18.68783 -19.1929,0 -19.1929,0 0,-18.68783 z"
       id="path3837"
       inkscape:connector-curvature="0"
       transform="translate(0,652.36214)" />
    <path
       style="fill:#008000;fill-opacity:1;stroke:none"
       d="m 361.21834,220.271 0,-18.68783 18.68782,0 18.68783,0 0,18.68783 0,18.68782 -18.68783,0 -18.68782,0 0,-18.68782 z"
       id="path3839"
       inkscape:connector-curvature="0"
       transform="translate(0,652.36214)" />
    <path
       style="fill:#008000;fill-opacity:1;stroke:none"
       d="m 361.21834,179.86489 0,-18.68782 18.68782,0 18.68783,0 0,18.68782 0,18.68783 -18.68783,0 -18.68782,0 0,-18.68783 z"
       id="path3841"
       inkscape:connector-curvature="0"
       transform="translate(0,652.36214)" />
    <path
       style="fill:#008000;fill-opacity:1;stroke:none"
       d="m 361.21834,139.96387 0,-19.1929 18.68782,0 18.68783,0 0,19.1929 0,19.1929 -18.68783,0 -18.68782,0 0,-19.1929 z"
       id="path3843"
       inkscape:connector-curvature="0"
       transform="translate(0,652.36214)" />
    <path
       style="fill:#008000;fill-opacity:1;stroke:none"
       d="m 361.21834,100.06284 0,-18.687819 18.68782,0 18.68783,0 0,18.687819 0,18.68783 -18.68783,0 -18.68782,0 0,-18.68783 z"
       id="path3845"
       inkscape:connector-curvature="0"
       transform="translate(0,652.36214)" />
    <path
       style="fill:#008000;fill-opacity:1;stroke:none"
       d="m 361.21834,60.161817 0,-19.192898 18.68782,0 18.68783,0 0,19.192898 0,19.192899 -18.68783,0 -18.68782,0 0,-19.192899 z"
       id="path3847"
       inkscape:connector-curvature="0"
       transform="translate(0,652.36214)" />
    <path
       style="fill:#008000;fill-opacity:1;stroke:none"
       d="m 320.81224,60.161817 0,-19.192898 19.1929,0 19.1929,0 0,19.192898 0,19.192899 -19.1929,0 -19.1929,0 0,-19.192899 z"
       id="path3849"
       inkscape:connector-curvature="0"
       transform="translate(0,652.36214)" />
    <path
       style="fill:#008000;fill-opacity:1;stroke:none"
       d="m 320.81224,20.260792 0,-18.6878223 19.1929,0 19.1929,0 0,18.6878223 0,18.687822 -19.1929,0 -19.1929,0 0,-18.687822 z"
       id="path3853"
       inkscape:connector-curvature="0"
       transform="translate(0,652.36214)" />
    <path
       style="fill:#008000;fill-opacity:1;stroke:none"
       d="m 361.21834,20.260792 0,-18.6878223 18.68782,0 18.68783,0 0,18.6878223 0,18.687822 -18.68783,0 -18.68782,0 0,-18.687822 z"
       id="path3855"
       inkscape:connector-curvature="0"
       transform="translate(0,652.36214)" />
    <path
       style="fill:none;fill-opacity:1;stroke:none"
       d="m 400.61429,60.161817 0,-19.192898 19.1929,0 19.1929,0 0,19.192898 0,19.192899 -19.1929,0 -19.1929,0 0,-19.192899 z"
       id="path3861"
       inkscape:connector-curvature="0"
       transform="translate(0,652.36214)" />
    <path
       style="fill:#000080;fill-opacity:1;stroke:none"
       d="m 40.999985,179.86489 0,-18.68782 19.192898,0 19.192898,0 0,18.68782 0,18.68783 -19.192898,0 -19.192898,0 0,-18.68783 z"
       id="path3865"
       inkscape:connector-curvature="0"
       transform="translate(0,652.36214)" />
    <path
       style="fill:#008000;fill-opacity:1;stroke:none"
       d="m 320.81224,260.17202 0,-19.1929 19.1929,0 19.1929,0 0,19.1929 0,19.1929 -19.1929,0 -19.1929,0 0,-19.1929 z"
       id="path3873"
       inkscape:connector-curvature="0"
       transform="translate(0,652.36214)" />
    <path
       style="fill:#008000;fill-opacity:1;stroke:none"
       d="m 361.21834,260.17202 0,-19.1929 18.68782,0 18.68783,0 0,19.1929 0,19.1929 -18.68783,0 -18.68782,0 0,-19.1929 z"
       id="path3875"
       inkscape:connector-curvature="0"
       transform="translate(0,652.36214)" />
    <path
       style="fill:#008000;fill-opacity:1;stroke:none"
       d="m 361.21834,300.07305 0,-18.68783 18.68782,0 18.68783,0 0,18.68783 0,18.68782 -18.68783,0 -18.68782,0 0,-18.68782 z"
       id="path3877"
       inkscape:connector-curvature="0"
       transform="translate(0,652.36214)" />
    <path
       style="fill:#008000;fill-opacity:1;stroke:none"
       d="m 320.81224,300.07305 0,-18.68783 19.1929,0 19.1929,0 0,18.68783 0,18.68782 -19.1929,0 -19.1929,0 0,-18.68782 z"
       id="path3879"
       inkscape:connector-curvature="0"
       transform="translate(0,652.36214)" />
    <path
       style="fill:#008000;fill-opacity:1;stroke:none"
       d="m 320.81224,339.97407 0,-19.1929 19.1929,0 19.1929,0 0,19.1929 0,19.1929 -19.1929,0 -19.1929,0 0,-19.1929 z"
       id="path3881"
       inkscape:connector-curvature="0"
       transform="translate(0,652.36214)" />
    <path
       style="fill:#008000;fill-opacity:1;stroke:none"
       d="m 361.21834,339.97407 0,-19.1929 18.68782,0 18.68783,0 0,19.1929 0,19.1929 -18.68783,0 -18.68782,0 0,-19.1929 z"
       id="path3883"
       inkscape:connector-curvature="0"
       transform="translate(0,652.36214)" />
    <path
       style="fill:#008000;fill-opacity:1;stroke:none"
       d="m 320.81224,379.8751 0,-18.68782 19.1929,0 19.1929,0 0,18.68782 0,18.68782 -19.1929,0 -19.1929,0 0,-18.68782 z"
       id="path3885"
       inkscape:connector-curvature="0"
       transform="translate(0,652.36214)" />
    <path
       style="fill:#000080;fill-opacity:1;stroke:none"
       d="m 361.21834,379.8751 0,-18.68782 18.68782,0 18.68783,0 0,18.68782 0,18.68782 -18.68783,0 -18.68782,0 0,-18.68782 z"
       id="path3887"
       inkscape:connector-curvature="0"
       transform="translate(0,652.36214)" />
    <path
       style="fill:#000080;fill-opacity:1;stroke:none"
       d="m 241.01019,179.86489 0,-18.68782 18.68782,0 18.68782,0 0,18.68782 0,18.68783 -18.68782,0 -18.68782,0 0,-18.68783 z"
       id="path3889"
       inkscape:connector-curvature="0"
       transform="translate(0,652.36214)" />
    <path
       style="fill:#008000;fill-opacity:1;stroke:none"
       d="m 361.21834,379.8751 0,-18.68782 18.68782,0 18.68783,0 0,18.68782 0,18.68782 -18.68783,0 -18.68782,0 0,-18.68782 z"
       id="path3893"
       inkscape:connector-curvature="0"
       transform="translate(0,652.36214)" />
    <path
       style="fill:#ff0000;fill-opacity:1;stroke:none"
       d="m 441.02039,179.86489 0,-18.68782 18.68782,0 18.68783,0 0,18.68782 0,18.68783 -18.68783,0 -18.68782,0 0,-18.68783 z"
       id="path3897"
       inkscape:connector-curvature="0"
       transform="translate(0,652.36214)" />
    <text
       xml:space="preserve"
       style="font-size:15px;font-style:normal;font-weight:normal;line-height:125%;letter-spacing:0px;word-spacing:0px;fill:#000000;fill-opacity:1;stroke:none;font-family:Sans;-inkscape-font-specification:Sans"
       x="56.568542"
       y="797.70215"
       id="text3899"
       sodipodi:linespacing="125%"><tspan
         sodipodi:role="line"
         id="tspan3901"
         x="56.568542"
         y="797.70215">1</tspan></text>
    <text
       xml:space="preserve"
       style="font-size:15px;font-style:normal;font-weight:normal;line-height:125%;letter-spacing:0px;word-spacing:0px;fill:#000000;fill-opacity:1;stroke:none;font-family:Sans;-inkscape-font-specification:Sans"
       x="94.736046"
       y="836.11896"
       id="text3899-4"
       sodipodi:linespacing="125%"><tspan
         sodipodi:role="line"
         id="tspan3901-5"
         x="94.736046"
         y="836.11896">1</tspan></text>
    <text
       xml:space="preserve"
       style="font-size:15px;font-style:normal;font-weight:normal;line-height:125%;letter-spacing:0px;word-spacing:0px;fill:#000000;fill-opacity:1;stroke:none;font-family:Sans;-inkscape-font-specification:Sans"
       x="14.736046"
       y="836.11896"
       id="text3899-4-5"
       sodipodi:linespacing="125%"><tspan
         sodipodi:role="line"
         id="tspan3901-5-0"
         x="14.736046"
         y="836.11896">1</tspan></text>
    <text
       xml:space="preserve"
       style="font-size:15px;font-style:normal;font-weight:normal;line-height:125%;letter-spacing:0px;word-spacing:0px;fill:#000000;fill-opacity:1;stroke:none;font-family:Sans;-inkscape-font-specification:Sans"
       x="54.736046"
       y="878.11896"
       id="text3899-4-5-6"
       sodipodi:linespacing="125%"><tspan
         sodipodi:role="line"
         id="tspan3901-5-0-0"
         x="54.736046"
         y="878.11896">1</tspan></text>
    <text
       xml:space="preserve"
       style="font-size:15px;font-style:normal;font-weight:normal;line-height:125%;letter-spacing:0px;word-spacing:0px;fill:#ffffff;fill-opacity:1;stroke:none;font-family:Sans;-inkscape-font-specification:Sans"
       x="52.736046"
       y="836.11896"
       id="text3899-4-5-6-6"
       sodipodi:linespacing="125%"><tspan
         sodipodi:role="line"
         id="tspan3901-5-0-0-8"
         x="52.736046"
         y="836.11896">-4</tspan></text>
    <text
       xml:space="preserve"
       style="font-size:15px;font-style:normal;font-weight:normal;line-height:125%;letter-spacing:0px;word-spacing:0px;fill:#000000;fill-opacity:1;stroke:none;font-family:Sans;-inkscape-font-specification:Sans"
       x="255.38074"
       y="799.35217"
       id="text3899-3"
       sodipodi:linespacing="125%"><tspan
         sodipodi:role="line"
         id="tspan3901-4"
         x="255.38074"
         y="799.35217">1</tspan></text>
    <text
       xml:space="preserve"
       style="font-size:15px;font-style:normal;font-weight:normal;line-height:125%;letter-spacing:0px;word-spacing:0px;fill:#000000;fill-opacity:1;stroke:none;font-family:Sans;-inkscape-font-specification:Sans"
       x="293.54825"
       y="837.76898"
       id="text3899-4-1"
       sodipodi:linespacing="125%"><tspan
         sodipodi:role="line"
         id="tspan3901-5-1"
         x="293.54825"
         y="837.76898">1</tspan></text>
    <text
       xml:space="preserve"
       style="font-size:15px;font-style:normal;font-weight:normal;line-height:125%;letter-spacing:0px;word-spacing:0px;fill:#000000;fill-opacity:1;stroke:none;font-family:Sans;-inkscape-font-specification:Sans"
       x="213.54825"
       y="837.76898"
       id="text3899-4-5-3"
       sodipodi:linespacing="125%"><tspan
         sodipodi:role="line"
         id="tspan3901-5-0-8"
         x="213.54825"
         y="837.76898">1</tspan></text>
    <text
       xml:space="preserve"
       style="font-size:15px;font-style:normal;font-weight:normal;line-height:125%;letter-spacing:0px;word-spacing:0px;fill:#000000;fill-opacity:1;stroke:none;font-family:Sans;-inkscape-font-specification:Sans"
       x="253.54825"
       y="879.76898"
       id="text3899-4-5-6-8"
       sodipodi:linespacing="125%"><tspan
         sodipodi:role="line"
         id="tspan3901-5-0-0-0"
         x="253.54825"
         y="879.76898">1</tspan></text>
    <text
       xml:space="preserve"
       style="font-size:15px;font-style:normal;font-weight:normal;line-height:125%;letter-spacing:0px;word-spacing:0px;fill:#ffffff;fill-opacity:1;stroke:none;font-family:Sans;-inkscape-font-specification:Sans"
       x="251.54825"
       y="837.76898"
       id="text3899-4-5-6-6-5"
       sodipodi:linespacing="125%"><tspan
         sodipodi:role="line"
         id="tspan3901-5-0-0-8-2"
         x="251.54825"
         y="837.76898">-4</tspan></text>
    <text
       xml:space="preserve"
       style="font-size:15px;font-style:normal;font-weight:normal;line-height:125%;letter-spacing:0px;word-spacing:0px;fill:#000000;fill-opacity:1;stroke:none;font-family:Sans;-inkscape-font-specification:Sans"
       x="456.53314"
       y="797.40802"
       id="text3899-31"
       sodipodi:linespacing="125%"><tspan
         sodipodi:role="line"
         id="tspan3901-58"
         x="456.53314"
         y="797.40802">1</tspan></text>
    <text
       xml:space="preserve"
       style="font-size:15px;font-style:normal;font-weight:normal;line-height:125%;letter-spacing:0px;word-spacing:0px;fill:#000000;fill-opacity:1;stroke:none;font-family:Sans;-inkscape-font-specification:Sans"
       x="494.70062"
       y="835.82483"
       id="text3899-4-9"
       sodipodi:linespacing="125%"><tspan
         sodipodi:role="line"
         id="tspan3901-5-7"
         x="494.70062"
         y="835.82483">1</tspan></text>
    <text
       xml:space="preserve"
       style="font-size:15px;font-style:normal;font-weight:normal;line-height:125%;letter-spacing:0px;word-spacing:0px;fill:#000000;fill-opacity:1;stroke:none;font-family:Sans;-inkscape-font-specification:Sans"
       x="414.70065"
       y="835.82483"
       id="text3899-4-5-5"
       sodipodi:linespacing="125%"><tspan
         sodipodi:role="line"
         id="tspan3901-5-0-5"
         x="414.70065"
         y="835.82483">1</tspan></text>
    <text
       xml:space="preserve"
       style="font-size:15px;font-style:normal;font-weight:normal;line-height:125%;letter-spacing:0px;word-spacing:0px;fill:#000000;fill-opacity:1;stroke:none;font-family:Sans;-inkscape-font-specification:Sans"
       x="454.70062"
       y="877.82483"
       id="text3899-4-5-6-83"
       sodipodi:linespacing="125%"><tspan
         sodipodi:role="line"
         id="tspan3901-5-0-0-9"
         x="454.70062"
         y="877.82483">1</tspan></text>
    <text
       xml:space="preserve"
       style="font-size:15px;font-style:normal;font-weight:normal;line-height:125%;letter-spacing:0px;word-spacing:0px;fill:#ffffff;fill-opacity:1;stroke:none;font-family:Sans;-inkscape-font-specification:Sans"
       x="452.70062"
       y="835.82483"
       id="text3899-4-5-6-6-4"
       sodipodi:linespacing="125%"><tspan
         sodipodi:role="line"
         id="tspan3901-5-0-0-8-0"
         x="452.70062"
         y="835.82483">-4</tspan></text>
  </g>
</svg>
